<svg class="w-10 h-10" viewBox="0 0 2060 561" fill="none" xmlns="http://www.w3.org/2000/svg">
    <path d="M348.78 116.4C348.78 179.9 346.85 241.48 286.25 260.72C253.53 271.3 229.47 270.35 209.26 255.92C149.61 213.58 129.42 184.71 106.31 148.15C82.13 109.1 88.51 87.11 80.27 83.96C131.15 32.13 201.99 0 280.34 0C286.17 0 291.97 0.169998 297.7 0.559998C300.28 4.46 303.89 9.01999 308.35 14.43C326.63 37.52 348.77 78.89 348.77 116.4H348.78Z"
          fill="black"/>
    <path d="M523.28 140.29C502.88 142.97 473.5 149.75 446.9 166.42C414.21 186.63 391.1 209.71 377.64 209.71C373.79 209.71 367.06 206.83 367.06 198.18C367.06 186.63 371.86 166.42 371.86 120.24C371.86 74.0605 350.7 31.7205 333.37 9.59047C331.93 7.71047 330.52 5.93047 329.13 4.23047C412.14 18.7805 482.56 69.8605 523.28 140.28V140.29Z"
          fill="black"/>
    <path d="M409.67 529.12C370.98 549.31 327 560.69 280.35 560.69C125.53 560.69 0 435.17 0 280.34C0 210.74 25.35 147.09 67.36 98.0703C67.02 100.58 66.87 103.24 66.87 105.82C66.87 136.61 87.08 165.47 108.24 191.43C162.12 258.79 221.77 278.02 225.62 304.98C227.55 320.36 168.87 409.83 154.44 424.26C140.01 438.69 119.8 449.27 119.8 449.27C119.8 454.1 128.45 462.75 139.03 459.87C149.61 456.97 169.82 440.61 169.82 440.61C169.82 461.79 152.51 477.18 150.59 481.03C158.27 486.81 171.75 484.88 182.33 471.4C193.89 456.97 196.76 430.03 210.24 416.57C226.6 400.21 253.54 397.31 282.4 397.31C342.05 397.31 366.09 438.68 393.03 497.38C397.54 507.89 403.1 518.91 409.68 529.1L409.67 529.12Z"
          fill="black"/>
    <path d="M868.04 393.34C855.67 393.34 844.59 390.423 834.79 384.59C825.22 378.757 817.64 370.823 812.04 360.79C806.44 350.523 803.64 338.857 803.64 325.79V154.64C803.64 150.673 804.81 147.407 807.14 144.84C809.71 142.273 812.97 140.99 816.94 140.99C820.91 140.99 824.17 142.273 826.74 144.84C829.31 147.407 830.59 150.673 830.59 154.64V325.79C830.59 337.69 834.09 347.49 841.09 355.19C848.09 362.657 857.07 366.39 868.04 366.39H877.49C881.22 366.39 884.26 367.673 886.59 370.24C888.92 372.807 890.09 376.073 890.09 380.04C890.09 384.007 888.69 387.273 885.89 389.84C883.09 392.173 879.59 393.34 875.39 393.34H868.04ZM780.89 232.34C777.39 232.34 774.47 231.29 772.14 229.19C769.81 226.857 768.64 224.057 768.64 220.79C768.64 217.29 769.81 214.49 772.14 212.39C774.47 210.057 777.39 208.89 780.89 208.89H870.14C873.64 208.89 876.56 210.057 878.89 212.39C881.22 214.49 882.39 217.29 882.39 220.79C882.39 224.057 881.22 226.857 878.89 229.19C876.56 231.29 873.64 232.34 870.14 232.34H780.89ZM1018.31 395.09C1000.34 395.09 984.24 390.89 970.01 382.49C955.78 373.857 944.46 362.19 936.06 347.49C927.89 332.79 923.81 316.223 923.81 297.79C923.81 279.123 928.01 262.44 936.41 247.74C945.04 233.04 956.71 221.49 971.41 213.09C986.11 204.457 1002.68 200.14 1021.11 200.14C1039.54 200.14 1055.99 204.457 1070.46 213.09C1085.16 221.49 1096.71 233.04 1105.11 247.74C1113.74 262.44 1118.18 279.123 1118.41 297.79L1107.56 306.19C1107.56 322.99 1103.59 338.157 1095.66 351.69C1087.96 364.99 1077.34 375.607 1063.81 383.54C1050.51 391.24 1035.34 395.09 1018.31 395.09ZM1021.11 370.59C1034.64 370.59 1046.66 367.44 1057.16 361.14C1067.89 354.84 1076.29 346.207 1082.36 335.24C1088.66 324.04 1091.81 311.557 1091.81 297.79C1091.81 283.79 1088.66 271.307 1082.36 260.34C1076.29 249.373 1067.89 240.74 1057.16 234.44C1046.66 227.907 1034.64 224.64 1021.11 224.64C1007.81 224.64 995.79 227.907 985.06 234.44C974.33 240.74 965.81 249.373 959.51 260.34C953.21 271.307 950.06 283.79 950.06 297.79C950.06 311.557 953.21 324.04 959.51 335.24C965.81 346.207 974.33 354.84 985.06 361.14C995.79 367.44 1007.81 370.59 1021.11 370.59ZM1104.76 393.34C1100.79 393.34 1097.53 392.173 1094.96 389.84C1092.39 387.273 1091.11 384.007 1091.11 380.04V320.19L1097.76 292.54L1118.41 297.79V380.04C1118.41 384.007 1117.13 387.273 1114.56 389.84C1111.99 392.173 1108.73 393.34 1104.76 393.34ZM1192.88 329.29L1176.43 311.44L1296.13 203.29C1298.93 200.723 1301.84 199.557 1304.88 199.79C1307.91 199.79 1310.71 201.19 1313.28 203.99C1315.84 206.79 1317.01 209.823 1316.78 213.09C1316.78 216.123 1315.38 218.807 1312.58 221.14L1192.88 329.29ZM1184.13 393.34C1180.16 393.34 1176.89 392.173 1174.33 389.84C1171.99 387.273 1170.83 384.007 1170.83 380.04V133.29C1170.83 129.323 1171.99 126.173 1174.33 123.84C1176.89 121.273 1180.16 119.99 1184.13 119.99C1188.09 119.99 1191.24 121.273 1193.58 123.84C1196.14 126.173 1197.43 129.323 1197.43 133.29V380.04C1197.43 384.007 1196.14 387.273 1193.58 389.84C1191.24 392.173 1188.09 393.34 1184.13 393.34ZM1313.63 391.59C1310.59 394.157 1307.44 395.207 1304.18 394.74C1300.91 394.507 1298.11 392.873 1295.78 389.84L1217.73 293.94L1236.63 277.14L1315.38 374.09C1317.71 376.89 1318.76 379.923 1318.53 383.19C1318.29 386.223 1316.66 389.023 1313.63 391.59ZM1390.37 393.34C1386.17 393.34 1382.79 392.173 1380.22 389.84C1377.89 387.273 1376.72 383.89 1376.72 379.69V215.54C1376.72 211.34 1377.89 208.073 1380.22 205.74C1382.79 203.173 1386.17 201.89 1390.37 201.89C1394.34 201.89 1397.49 203.173 1399.82 205.74C1402.39 208.073 1403.67 211.34 1403.67 215.54V379.69C1403.67 383.89 1402.39 387.273 1399.82 389.84C1397.49 392.173 1394.34 393.34 1390.37 393.34ZM1390.02 165.49C1384.89 165.49 1380.45 163.623 1376.72 159.89C1372.99 156.157 1371.12 151.607 1371.12 146.24C1371.12 140.407 1372.99 135.857 1376.72 132.59C1380.69 129.09 1385.24 127.34 1390.37 127.34C1395.27 127.34 1399.59 129.09 1403.32 132.59C1407.29 135.857 1409.27 140.407 1409.27 146.24C1409.27 151.607 1407.4 156.157 1403.67 159.89C1399.94 163.623 1395.39 165.49 1390.02 165.49ZM1636.44 393.34C1632.47 393.34 1629.21 392.057 1626.64 389.49C1624.07 386.923 1622.79 383.773 1622.79 380.04V289.04C1622.79 274.573 1619.99 262.673 1614.39 253.34C1609.02 244.007 1601.56 237.007 1591.99 232.34C1582.66 227.673 1572.04 225.34 1560.14 225.34C1548.71 225.34 1538.32 227.557 1528.99 231.99C1519.89 236.423 1512.66 242.49 1507.29 250.19C1501.92 257.89 1499.24 266.64 1499.24 276.44H1479.99C1480.46 261.74 1484.42 248.673 1491.89 237.24C1499.36 225.573 1509.27 216.473 1521.64 209.94C1534.01 203.173 1547.77 199.79 1562.94 199.79C1579.51 199.79 1594.32 203.29 1607.39 210.29C1620.46 217.057 1630.72 227.09 1638.19 240.39C1645.89 253.69 1649.74 269.907 1649.74 289.04V380.04C1649.74 383.773 1648.46 386.923 1645.89 389.49C1643.32 392.057 1640.17 393.34 1636.44 393.34ZM1485.94 393.34C1481.74 393.34 1478.36 392.173 1475.79 389.84C1473.46 387.273 1472.29 384.007 1472.29 380.04V215.54C1472.29 211.34 1473.46 208.073 1475.79 205.74C1478.36 203.173 1481.74 201.89 1485.94 201.89C1489.91 201.89 1493.06 203.173 1495.39 205.74C1497.96 208.073 1499.24 211.34 1499.24 215.54V380.04C1499.24 384.007 1497.96 387.273 1495.39 389.84C1493.06 392.173 1489.91 393.34 1485.94 393.34ZM1715.46 398.94C1709.86 398.94 1705.07 396.957 1701.11 392.99C1697.14 389.023 1695.16 384.24 1695.16 378.64C1695.16 372.807 1697.14 367.907 1701.11 363.94C1705.31 359.973 1710.09 357.99 1715.46 357.99C1721.06 357.99 1725.84 360.09 1729.81 364.29C1733.77 368.257 1735.76 373.04 1735.76 378.64C1735.76 384.007 1733.77 388.79 1729.81 392.99C1726.07 396.957 1721.29 398.94 1715.46 398.94ZM1869.04 395.09C1851.08 395.09 1834.98 390.89 1820.74 382.49C1806.51 373.857 1795.19 362.19 1786.79 347.49C1778.63 332.79 1774.54 316.223 1774.54 297.79C1774.54 279.123 1778.74 262.44 1787.14 247.74C1795.78 233.04 1807.44 221.49 1822.14 213.09C1836.84 204.457 1853.41 200.14 1871.84 200.14C1890.28 200.14 1906.73 204.457 1921.19 213.09C1935.89 221.49 1947.44 233.04 1955.84 247.74C1964.48 262.44 1968.91 279.123 1969.14 297.79L1958.29 306.19C1958.29 322.99 1954.33 338.157 1946.39 351.69C1938.69 364.99 1928.08 375.607 1914.54 383.54C1901.24 391.24 1886.08 395.09 1869.04 395.09ZM1871.84 370.59C1885.38 370.59 1897.39 367.44 1907.89 361.14C1918.63 354.84 1927.03 346.207 1933.09 335.24C1939.39 324.04 1942.54 311.557 1942.54 297.79C1942.54 283.79 1939.39 271.307 1933.09 260.34C1927.03 249.373 1918.63 240.74 1907.89 234.44C1897.39 227.907 1885.38 224.64 1871.84 224.64C1858.54 224.64 1846.53 227.907 1835.79 234.44C1825.06 240.74 1816.54 249.373 1810.24 260.34C1803.94 271.307 1800.79 283.79 1800.79 297.79C1800.79 311.557 1803.94 324.04 1810.24 335.24C1816.54 346.207 1825.06 354.84 1835.79 361.14C1846.53 367.44 1858.54 370.59 1871.84 370.59ZM1955.49 393.34C1951.53 393.34 1948.26 392.173 1945.69 389.84C1943.13 387.273 1941.84 384.007 1941.84 380.04V320.19L1948.49 292.54L1969.14 297.79V380.04C1969.14 384.007 1967.86 387.273 1965.29 389.84C1962.73 392.173 1959.46 393.34 1955.49 393.34ZM2040.81 393.34C2036.61 393.34 2033.22 392.173 2030.66 389.84C2028.32 387.273 2027.16 383.89 2027.16 379.69V215.54C2027.16 211.34 2028.32 208.073 2030.66 205.74C2033.22 203.173 2036.61 201.89 2040.81 201.89C2044.77 201.89 2047.92 203.173 2050.26 205.74C2052.82 208.073 2054.11 211.34 2054.11 215.54V379.69C2054.11 383.89 2052.82 387.273 2050.26 389.84C2047.92 392.173 2044.77 393.34 2040.81 393.34ZM2040.46 165.49C2035.32 165.49 2030.89 163.623 2027.16 159.89C2023.42 156.157 2021.56 151.607 2021.56 146.24C2021.56 140.407 2023.42 135.857 2027.16 132.59C2031.12 129.09 2035.67 127.34 2040.81 127.34C2045.71 127.34 2050.02 129.09 2053.76 132.59C2057.72 135.857 2059.71 140.407 2059.71 146.24C2059.71 151.607 2057.84 156.157 2054.11 159.89C2050.37 163.623 2045.82 165.49 2040.46 165.49Z"
          fill="black"/>
</svg>

